<svg xmlns="http://www.w3.org/2000/svg" width="64" height="64" fill="none" viewBox="0 0 64 64">
  <path fill="#FCFCFC" stroke="#1F2326" stroke-width="4" d="M41.216 20.91H40.06l-.577 1.004-7.021 12.224-7.022-12.224-.577-1.004h-13.48l1.721 2.996 17.623 30.68 1.735 3.019 1.734-3.02 17.623-30.679 1.72-2.996H41.217ZM8 9H4.545l1.72 2.996 4.426 7.704.577 1.004h42.385l.577-1.004 4.425-7.704L60.376 9H8Zm28.653 17.095 1.258-2.189 1.72-2.996H25.29l1.722 2.996 1.258 2.19 2.458 4.279 1.734 3.019 1.734-3.02 2.458-4.279Z"/>
</svg>
